<?xml version="1.0" encoding="UTF-8"?>
<svg xmlns="http://www.w3.org/2000/svg" viewBox="0 0 256 256" width="256" height="256">
  <path d="M88.07 45C87.78 44.94 87.48 44.89 87.18 44.83C86.34 42.55 84.48 41.05 82.21 40.24C80.21 39.53 77.27 40.06 75.17 40.06C69.42 40.06 59.31 37.94 56.82 44.83C56.52 44.89 56.23 44.94 55.93 44.99C56.07 41.16 55.41 37.47 58.28 34.45C61.44 31.13 66.32 31.89 70.5 31.89C76.81 31.89 85.62 30.47 87.9 38.18C88.53 40.29 87.99 42.84 88.07 45ZM200.09 59.36C198.45 59.75 196.91 63.51 193.83 64.09C183.07 66.13 170.52 56.67 168.64 46.17C168.4 46.12 168.16 46.08 167.92 46.03C168.09 42.43 167.22 38.75 169.04 35.55C172.78 29 188.43 31.54 193.5 34.96C194.9 33.84 196.07 32.74 197.82 32.12C203.34 30.16 209.94 36.61 207.87 42.18C206.33 46.31 203.57 46.66 200.17 48.47C200.14 52.1 200.11 55.73 200.09 59.36ZM136.06 40.33C136.07 45.45 136.08 50.57 136.08 55.69C136.08 50.57 136.07 45.45 136.06 40.33ZM63.93 72.39C65.22 74.9 63.92 80.04 65.41 83.46C68.61 90.84 77.7 87.02 79.55 80.79C80.31 78.24 78.93 74.62 80.07 72.39C80.1 74.82 80.14 77.25 80.17 79.68C83.38 80.67 87.27 78.99 90.48 80.04C99.39 82.93 95.58 96.49 96.17 103.58C104.21 103.69 112.26 103.81 120.3 103.92C120.3 109.31 120.3 114.69 120.3 120.08C112.26 120.19 104.21 120.31 96.17 120.42C96 127.52 95.84 134.61 95.67 141.71C95.02 142.39 95.07 143.49 94.22 144.05C92.28 145.32 87.96 144.22 85.67 144.5C90.55 148.79 104.23 161.44 106.86 166.62C107.96 168.78 108.25 171.11 108.05 173.5C107.33 182.08 98.77 182.72 96.49 186.97C95.71 188.42 96.24 191.2 96.24 192.83C96.24 197.72 96.24 202.61 96.24 207.5C102.29 208.4 109.03 207.64 115.17 207.64C117.35 207.64 120.8 207.04 122.81 208.01C124.83 208.97 125.3 210.14 126.68 211.64C127.38 212.96 128.02 214.31 128.09 215.83C128.16 217.38 128.55 219.97 127.85 221.4C125.73 225.74 113.89 224.11 109.5 224.11C105.98 224.11 100.06 225.29 97.32 222.84C94.88 220.65 95.89 215.83 95.89 212.83C95.89 203.6 95.67 194.26 95.98 185.03C98.35 180.79 103.17 178.82 103.8 173.18C104.44 167.51 100.45 163.69 96.8 160.03C92.81 156.04 88.67 152.15 84.8 148.04C83.37 146.52 80.71 144.86 79.9 142.91C79.15 141.11 79.62 138.41 79.62 136.5C74.54 136.5 69.46 136.5 64.38 136.5C64.38 138.06 64.86 140.61 64.17 142.04C62.36 145.83 53.43 144.86 49.98 144.17C49.29 143.45 48.6 142.74 47.91 142.03C47.8 126.74 47.69 111.45 47.59 96.17C42.45 96.25 37.31 96.33 32.17 96.41C32.14 104.38 32.11 112.34 32.08 120.3C26.69 120.3 21.31 120.3 15.92 120.3C15.88 115.05 15.89 109.76 15.89 104.5C15.89 100.99 15.12 96.38 16.14 93C21.44 75.48 40.91 79.89 55.5 79.89C58.08 79.89 61.39 80.43 63.83 79.68C63.86 77.25 63.9 74.82 63.93 72.39ZM192.07 72.39C192.03 74.76 191.99 77.13 191.95 79.5C193.97 79.64 195.98 79.78 198 79.92C196.72 81.42 194.64 81.78 193.41 83.58C190.29 88.14 193.12 94.93 198.61 95.84C201.41 96.31 205.74 94.94 208.14 96.33C208.09 106.72 208.04 117.11 208 127.5C210.39 128.94 213.04 128.84 214.77 131.52C217.35 135.55 217.23 154.42 213.65 157.8C209.93 161.31 205.2 159.45 200.68 160.33C198.91 159.56 191.28 160.38 188.83 160.38C178.94 160.38 169.06 160.38 159.17 160.38C154.65 160.38 147.22 161.94 144.33 158.29C143.82 156.72 143.53 154.6 144.15 152.99C146.24 147.5 158.36 137.42 162.97 132.8C166.48 129.29 170.07 125.66 167.7 120.17C155.93 120.14 144.16 120.1 132.39 120.07C144.09 119.99 155.8 119.91 167.5 119.83C167.89 117.98 168.32 114.04 167.57 112.24C166.17 108.92 161.98 107.75 161.61 103.67C157.8 95.71 160.89 86.31 167.31 80.69C167.62 80.85 167.92 81.01 168.23 81.17C168.38 83.6 168.14 86.07 168.34 88.5C168.87 94.7 177.05 98.08 181.46 93.31C184.46 90.05 182.89 85.33 185.96 82.12C187.61 80.39 189.63 80.03 191.83 79.5C191.91 77.13 191.99 74.76 192.07 72.39ZM132.39 103.93C141.8 103.98 151.2 104.02 160.61 104.07C151.2 104.02 141.8 103.98 132.39 103.93ZM207.76 120.37C194.59 120.37 181.41 120.37 168.24 120.37C168.24 122.77 168.24 125.17 168.24 127.58C181.41 127.58 194.59 127.58 207.76 127.58C207.76 125.17 207.76 122.77 207.76 120.37ZM32.42 160.17C29.63 166.37 36.51 181.93 25.55 183.96C20.53 184.89 14.1 179.4 16.15 173.99C17.69 169.94 20.42 169.36 23.83 167.59C24.16 163.51 21.77 153.82 26.85 152.07C28.92 151.35 35.42 151.18 37.4 152.14C40.72 153.76 40.86 158.68 37.15 159.93C35.71 160.42 33.91 160.04 32.42 160.17ZM232.41 168.17C229.62 174.39 236.53 189.92 225.55 191.96C220.53 192.89 214.1 187.39 216.15 181.99C217.69 177.95 220.42 177.36 223.83 175.59C224.17 171.51 221.77 161.82 226.85 160.07C228.93 159.35 235.42 159.18 237.4 160.15C240.73 161.76 240.85 166.68 237.15 167.93C235.71 168.42 233.91 168.04 232.41 168.17ZM47.92 195.99C49.55 198.35 49.52 201.37 51.51 203.68C56.9 209.92 66.29 207.42 71.17 201.84C71.46 201.9 71.75 201.96 72.05 202.02C72.3 206.97 72.71 212.49 70.86 217.1C67.4 225.73 55.06 225.87 50.13 218.73C45.78 212.41 48.56 203.23 47.92 195.99ZM224.08 210C224.14 213.46 225.53 220.36 222.79 222.94C220.27 225.32 214.41 224.14 211.17 224.14C206.85 224.14 194.32 225.72 192.17 221.64C191.39 220.17 191.81 217.46 191.87 215.83C191.93 214.2 192.51 212.69 193.33 211.3C194.16 210.64 194.55 209.59 195.52 209.01C200.08 206.28 207.99 207.79 213.17 207.79C215.6 207.79 219.19 207.12 221.49 207.97C222.63 208.39 222.98 209.65 224.08 210Z" fill="#3D5B87" fill-rule="evenodd" stroke="#3D5B87" stroke-width="0.25" stroke-linejoin="round"/>
  <path d="M136.06 40.33C136.07 45.45 136.08 50.57 136.08 55.69C136.2 56.18 136.32 56.67 136.43 57.17C136.1 58.06 135.77 58.94 135.43 59.83C133.23 61.05 131.71 63.4 129.16 64.4C125.33 65.9 120.36 59.96 119.57 56.83C118.96 54.45 121.86 52.46 121.57 50.5C123.66 49.56 125.74 48.61 127.83 47.67C127.74 43.5 127.66 39.33 127.57 35.17C128.77 33.97 129.97 32.77 131.17 31.57C134.5 31.57 137.83 31.57 141.17 31.57C142.26 32.99 143.34 34.41 144.43 35.83C144.35 37.9 142.12 39.01 140.83 40.43C139.24 40.4 137.65 40.37 136.06 40.33ZM88.07 45C88.96 47.09 89.05 59.06 88.43 61.5C88.09 62.8 87.01 63.35 87.43 64.83C86.54 65.5 86.12 65.69 86.43 66.83C85.23 68.03 84.03 69.23 82.83 70.43C82 70.68 81.17 70.92 80.33 71.17C80.25 71.57 80.16 71.98 80.07 72.39C78.93 74.62 80.31 78.24 79.55 80.79C77.7 87.02 68.61 90.84 65.41 83.46C63.92 80.04 65.22 74.9 63.93 72.39C63.84 71.98 63.75 71.57 63.67 71.17C62.83 70.92 62 70.68 61.17 70.43C59.97 69.23 58.77 68.03 57.57 66.83C57.23 66.17 56.9 65.5 56.57 64.83C56.99 63.35 55.91 62.8 55.57 61.5C54.95 59.06 55.04 47.09 55.93 44.99C56.23 44.94 56.52 44.89 56.82 44.83C59.31 37.94 69.42 40.06 75.17 40.06C77.27 40.06 80.21 39.53 82.21 40.24C84.48 41.05 86.34 42.55 87.18 44.83C87.48 44.89 87.78 44.94 88.07 45ZM200.09 59.36C201.05 61.6 198.84 62.79 199.43 64.83C198.54 65.5 198.12 65.69 198.43 66.83C197.23 68.03 196.03 69.23 194.83 70.43C194 70.68 193.17 70.92 192.33 71.17C192.25 71.57 192.16 71.98 192.07 72.39C191.99 74.76 191.91 77.13 191.83 79.5C189.63 80.03 187.61 80.39 185.96 82.12C182.89 85.33 184.46 90.05 181.46 93.31C177.05 98.08 168.87 94.7 168.34 88.5C168.14 86.07 168.38 83.6 168.23 81.17C167.92 81.01 167.62 80.85 167.31 80.69C167.6 80.31 167.88 79.94 168.17 79.57C170.72 79.6 173.28 79.63 175.83 79.67C175.78 76.83 175.72 74 175.67 71.17C174.83 70.92 174 70.68 173.17 70.43C171.97 69.23 170.77 68.03 169.57 66.83C169.23 66.17 168.9 65.5 168.57 64.83C168.99 63.35 167.91 62.8 167.57 61.5C166.99 59.24 167.08 47.94 167.92 46.03C168.16 46.08 168.4 46.12 168.64 46.17C170.52 56.67 183.07 66.13 193.83 64.09C196.91 63.51 198.45 59.75 200.09 59.36ZM208.14 96.33C205.74 94.94 201.41 96.31 198.61 95.84C193.12 94.93 190.29 88.14 193.41 83.58C194.64 81.78 196.72 81.42 198 79.92C206.56 79.89 215.11 79.86 223.67 79.83C222.8 72.83 223.57 65.24 223.57 58.17C223.57 56.14 224.89 52.83 224.57 51.83C224.93 51.39 225.29 50.94 225.65 50.5C226.38 49.86 227.11 49.21 227.83 48.57C229.22 49.01 229.58 48.1 230.84 47.61C232.51 46.96 236.72 48.98 237.9 50.33C240.83 53.67 240.43 57.98 240.43 62.17C240.43 69.61 240.43 77.06 240.43 84.5C240.43 88.22 240.01 92.09 236.66 94.49C235.73 95.15 234.14 96 233.16 96.39C231.3 97.12 227.84 96.43 225.83 96.43C219.97 96.43 213.97 96.71 208.14 96.33ZM161.61 103.67C161.98 107.75 166.17 108.92 167.57 112.24C168.32 114.04 167.89 117.98 167.5 119.83C155.8 119.91 144.09 119.99 132.39 120.07C128.36 120.07 124.33 120.08 120.3 120.08C120.3 114.69 120.3 109.31 120.3 103.92C124.33 103.92 128.36 103.93 132.39 103.93C141.8 103.98 151.2 104.02 160.61 104.07C160.8 103.94 160.98 103.8 161.17 103.67C161.31 103.67 161.46 103.67 161.61 103.67ZM32.08 120.3C34.52 126.24 31.31 134.78 24.83 136.43C23.68 136.73 22.97 136.27 22.1 135.76C20.94 135.07 19.36 134.8 18.33 133.9C15.26 131.21 14.46 123.85 15.92 120.3C21.31 120.3 26.69 120.3 32.08 120.3ZM207.76 120.37C207.76 122.77 207.76 125.17 207.76 127.58C194.59 127.58 181.41 127.58 168.24 127.58C168.24 125.17 168.24 122.77 168.24 120.37C181.41 120.37 194.59 120.37 207.76 120.37ZM95.98 185.03C95.77 184.85 95.55 184.68 95.33 184.5C87.57 190.34 79.81 196.18 72.05 202.02C71.75 201.96 71.46 201.9 71.17 201.84C66.29 207.42 56.9 209.92 51.51 203.68C49.52 201.37 49.55 198.35 47.92 195.99C48.13 194.27 48.35 192.55 48.57 190.83C50.74 189.63 52.36 186.46 54.55 184.89C58.41 182.13 71.25 173.83 73.33 170.5C65.08 162.06 56.82 153.61 48.57 145.17C49.11 143.79 48.12 143.14 47.91 142.03C48.6 142.74 49.29 143.45 49.98 144.17C53.43 144.86 62.36 145.83 64.17 142.04C64.86 140.61 64.38 138.06 64.38 136.5C69.46 136.5 74.54 136.5 79.62 136.5C79.62 138.41 79.15 141.11 79.9 142.91C80.71 144.86 83.37 146.52 84.8 148.04C88.67 152.15 92.81 156.04 96.8 160.03C100.45 163.69 104.44 167.51 103.8 173.18C103.17 178.82 98.35 180.79 95.98 185.03ZM95.67 141.71C95.88 144.25 99.6 146.76 101.33 148.5C105.05 152.21 115.62 161.17 117.82 165.01C119.78 168.41 120.43 171.22 120.43 175.17C120.43 177.01 119.73 180.91 120.5 182.33C128.44 174.32 136.39 166.3 144.33 158.29C147.22 161.94 154.65 160.38 159.17 160.38C169.06 160.38 178.94 160.38 188.83 160.38C191.28 160.38 198.91 159.56 200.68 160.33C196.9 164.05 193.12 167.78 189.33 171.5C189.52 174.34 194.98 178.15 197 180.17C202.67 185.83 208.33 191.5 214 197.17C216.55 199.72 219.28 203.48 222.43 205.17C222.77 205.72 223.1 206.28 223.43 206.83C223.65 207.89 223.86 208.95 224.08 210C222.98 209.65 222.63 208.39 221.49 207.97C219.19 207.12 215.6 207.79 213.17 207.79C207.99 207.79 200.08 206.28 195.52 209.01C194.55 209.59 194.16 210.64 193.33 211.3C193.38 210.98 193.44 210.66 193.5 210.33C185.83 202.67 178.17 195 170.5 187.33C167.95 184.78 162.48 180.98 161.5 177.67C159.8 176.12 154.17 182.66 152.67 184.17C146.11 190.72 139.56 197.28 133 203.83C131.13 205.71 126.67 208.91 126.68 211.64C125.3 210.14 124.83 208.97 122.81 208.01C120.8 207.04 117.35 207.64 115.17 207.64C109.03 207.64 102.29 208.4 96.24 207.5C96.24 202.61 96.24 197.72 96.24 192.83C96.24 191.2 95.71 188.42 96.49 186.97C98.77 182.72 107.33 182.08 108.05 173.5C108.25 171.11 107.96 168.78 106.86 166.62C104.23 161.44 90.55 148.79 85.67 144.5C87.96 144.22 92.28 145.32 94.22 144.05C95.07 143.49 95.02 142.39 95.67 141.71Z" fill="#FCF2E0" fill-rule="evenodd" stroke="#FCF2E0" stroke-width="0.25" stroke-linejoin="round"/>
</svg>